<?xml version="1.0" encoding="utf-8"?>
<!-- Generator: Adobe Illustrator 18.1.1, SVG Export Plug-In . SVG Version: 6.00 Build 0)  -->
<svg version="1.1" id="Layer_1" xmlns="http://www.w3.org/2000/svg" xmlns:xlink="http://www.w3.org/1999/xlink" x="0px" y="0px"
	 width="626px" height="390px" viewBox="-190 238 626 390" style="enable-background:new -190 238 626 390;" xml:space="preserve">
<style type="text/css">
	.st0{fill:#FFFFFF;}
</style>
<path class="st0" d="M436,463c-0.3-1.6-0.8-3.2-0.9-4.8c-1.4-20.8-5.5-40.9-15.1-59.6c-10.2-19.9-24-36.8-43.1-48.8
	c-22.5-14.1-47.5-19.7-73.7-20.5c-32.6-1-63.1,5.7-90,25.4c-22.8,16.6-38.1,38.6-45.8,65.4c-10,34.5-10.3,69.6-3.3,104.8
	c8.8,44.3,36.4,72.5,77.1,89c32.4,13.1,65.7,14.2,99.6,6.7c32.7-7.2,58.3-25,77.2-52.5c6.9-10,12.4-20.7,13.7-34c-2.2,0-3.9,0-5.7,0
	c-20.7,0-41.3,0.2-62-0.1c-5.1-0.1-8,1.7-10.2,6c-4.3,8.2-11,14.4-19.1,18.5c-18.4,9.4-38,9.7-57.3,4c-25.7-7.6-39.1-26.2-43.3-52.1
	c-0.7-4.3-0.9-8.8-1.4-13.6c2.7,0,4.5,0,6.4,0c64.2,0,128.3,0,192.5,0c1.5,0,3,0.2,4.5,0.3 M-190,628c2.2-0.1,4.3-0.3,6.5-0.3
	c60.2-0.1,120.3-0.1,180.5-0.4c19.2-0.1,38.3-2.4,56.6-8.4c29.3-9.7,50.4-29.1,63.8-56.8c12-24.8,14.6-50.9,8.9-77.9
	c-5.2-24.9-18-44.4-40.3-57.3c-5.1-2.9-10.4-5.4-16.3-8.4c2.9-1.7,5-2.9,7.1-4.2c12.5-7.2,23.2-16.4,29.7-29.5
	c13.3-26.8,13.3-54.8,4.1-82.5c-9.3-27.9-29.9-45.3-57.2-55.1c-19.2-6.9-39.3-8.8-59.5-8.9c-59.1-0.1-118.3,0-177.4,0
	c-2.2,0-4.3-0.2-6.5-0.3 M375,254.8c-52,0-103.9,0-155.8,0c0,12.9,0,25.4,0,38c52.1,0,103.8,0,155.8,0C375,280,375,267.6,375,254.8z
	"/>
<path class="st0" d="M375,254.8c0,12.8,0,25.2,0,38c-52,0-103.7,0-155.8,0c0-12.6,0-25.1,0-38C271.1,254.8,322.9,254.8,375,254.8z"
	/>
<path class="st0" d="M126.4,484.3c-5.2-24.9-18-44.5-40.3-57.3c-5.1-3-10.4-5.4-16.3-8.4c2.9-1.7,5-3,7.1-4.2
	c12.5-7.2,23.2-16.4,29.7-29.5c13.3-26.8,13.3-54.8,4.1-82.5c-9.3-27.9-29.9-45.3-57.2-55.1c-19.3-6.9-39.3-8.8-59.5-8.9
	c-59.2-0.2-118.3-0.1-177.5-0.1c-2.2,0-4.3-0.2-6.5-0.3c0,130,0,260,0.1,390.1c2.2-0.1,4.3-0.3,6.5-0.3c60.2-0.1,120.3,0,180.5-0.4
	c19.2-0.1,38.3-2.4,56.6-8.4c29.3-9.7,50.4-29.2,63.8-56.8C129.5,537.3,132,511.3,126.4,484.3z M-100.3,311
	C-100.3,311-100.3,311-100.3,311c0-0.1,0-0.1,0-0.2c0,0,0-0.1,0-0.1c0-1.4,0.2-2.8,0.3-4.8c8.3,0,15.9,0,23.5,0
	c19.3,0,38.7-0.4,57.9,0.3c10.7,0.4,21.4,2.4,32,4.5c15,3.1,22.9,13.5,25,28.1c0.5,3.2,0.8,6.4,0.8,9.6c0.2,9.3-1.9,18.4-7.8,26.4
	c-6,8.2-15.1,12-24.6,14c-8.4,1.7-17.1,2.9-25.7,3c-25.3,0.3-50.6,0-75.9,0.2c-3.4,0-4.9-0.7-5.4-3c0-0.1,0-0.2-0.1-0.3
	c0-0.1,0-0.1,0-0.2c-0.1-0.7-0.2-1.4-0.1-2.3c0.1-12.5,0.1-25.1,0.1-37.6C-100.3,336-100.3,323.5-100.3,311z M34.9,543.2
	c-8.6,9.9-20.1,15-32.5,15.4c-33.6,1.1-67.2,1-100.9,1.3c0,0,0,0,0,0c0,0-0.1,0-0.1,0c-0.1,0-0.1,0-0.2,0c-0.3-0.1-0.7-0.3-1.4-0.7
	c0-1.5,0-3-0.1-4.5c0-31,0.1-62-0.1-93c0-4.2,0.9-5.9,5.5-5.8c0,0,0,0,0.1,0c0,0,0,0,0,0c30.8,0.5,61.6,0.2,92.4,1.2
	c8.6,0.3,17.5,2.9,25.5,6.3c13.9,5.9,21.8,17,23.4,32.3C48.3,512.9,46.8,529.3,34.9,543.2z"/>
<path class="st0" d="M363.9,533.9c-5.1-0.1-8,1.8-10.2,6c-4.3,8.2-11,14.4-19.1,18.5c-18.4,9.5-37.9,9.7-57.3,4
	c-25.7-7.6-39.1-26.2-43.3-52.1c-0.7-4.3-0.9-8.8-1.4-13.6c2.8,0,4.6,0,6.4,0c64.2,0,128.3,0,192.5,0c1.5,0,3,0.2,4.5,0.3
	c0-11.3,0-22.7-0.1-34.1c-0.3-1.6-0.8-3.2-0.9-4.8c-1.4-20.8-5.5-40.9-15.1-59.6c-10.3-19.9-24-36.8-43.1-48.8
	c-22.5-14.1-47.6-19.7-73.7-20.5c-32.6-1-63.1,5.8-90,25.4c-22.7,16.6-38,38.6-45.8,65.4c-10,34.5-10.3,69.6-3.3,104.8
	c8.8,44.3,36.3,72.5,77.1,89c32.4,13.1,65.8,14.2,99.6,6.7c32.7-7.2,58.3-25,77.2-52.5c6.9-10,12.4-20.7,13.7-34c-2.2,0-3.9,0-5.7,0
	C405.2,534,384.6,534.3,363.9,533.9z M262.2,398.9c11.1-6.9,22.5-10.1,34.1-10.2c11.5-0.1,23.1,3,34.4,8.9c0,0,0,0,0,0
	c5.6,2.9,10.3,6.4,14.1,10.5c3.4,3.6,6.2,7.7,8.3,12.1c0.5,1.1,1,2.2,1.5,3.4c3.1,7.5,4.7,15.8,5.1,24.8c-41.6,0-83,0-125.1,0
	C238,428.2,244.4,409.9,262.2,398.9z"/>
</svg>
