<?xml version="1.0" encoding="utf-8"?>
<!-- Generator: Adobe Illustrator 18.1.1, SVG Export Plug-In . SVG Version: 6.00 Build 0)  -->
<svg version="1.1" id="Layer_1" xmlns="http://www.w3.org/2000/svg" xmlns:xlink="http://www.w3.org/1999/xlink" x="0px" y="0px"
	 width="626px" height="390px" viewBox="0 0 626 390" style="enable-background:new 0 0 626 390;" xml:space="preserve">
<style type="text/css">
	.st0{fill:#FFFFFF;}
</style>
<g id="KdA5Mu_1_">
	<g>
		<path class="st0" d="M626,225c-0.3-1.6-0.8-3.2-0.9-4.8c-1.4-20.8-5.5-40.9-15.1-59.6c-10.2-19.9-24-36.8-43.1-48.8
			c-22.5-14.1-47.5-19.7-73.7-20.5c-32.6-1-63.1,5.7-90,25.4c-22.8,16.6-38.1,38.6-45.8,65.4c-10,34.5-10.3,69.6-3.3,104.8
			c8.8,44.3,36.4,72.5,77.1,89c32.4,13.1,65.7,14.2,99.6,6.7c32.7-7.2,58.3-25,77.2-52.5c6.9-10,12.4-20.7,13.7-34
			c-2.2,0-3.9,0-5.7,0c-20.7,0-41.3,0.2-62-0.1c-5.1-0.1-8,1.7-10.2,6c-4.3,8.2-11,14.4-19.1,18.5c-18.4,9.4-38,9.7-57.3,4
			c-25.7-7.6-39.1-26.2-43.3-52.1c-0.7-4.3-0.9-8.8-1.4-13.6c2.7,0,4.5,0,6.4,0c64.2,0,128.3,0,192.5,0c1.5,0,3,0.2,4.5,0.3 M0,390
			c2.2-0.1,4.3-0.3,6.5-0.3c60.2-0.1,120.3-0.1,180.5-0.4c19.2-0.1,38.3-2.4,56.6-8.4c29.3-9.7,50.4-29.1,63.8-56.8
			c12-24.8,14.6-50.9,8.9-77.9c-5.2-24.9-18-44.4-40.3-57.3c-5.1-2.9-10.4-5.4-16.3-8.4c2.9-1.7,5-2.9,7.1-4.2
			c12.5-7.2,23.2-16.4,29.7-29.5c13.3-26.8,13.3-54.8,4.1-82.5c-9.3-27.9-29.9-45.3-57.2-55.1c-19.2-6.9-39.3-8.8-59.5-8.9
			C124.8,0.2,65.6,0.3,6.5,0.3C4.3,0.3,2.2,0.1,0,0 M565,16.8c-52,0-103.9,0-155.8,0c0,12.9,0,25.4,0,38c52.1,0,103.8,0,155.8,0
			C565,42,565,29.6,565,16.8z"/>
		<path class="st0" d="M0,0c2.2,0.1,4.3,0.3,6.5,0.3c59.2,0,118.3-0.1,177.5,0.1c20.2,0.1,40.2,2,59.5,8.9
			c27.3,9.8,47.9,27.2,57.2,55.1c9.2,27.7,9.2,55.7-4.1,82.5c-6.5,13.1-17.2,22.3-29.7,29.5c-2.1,1.2-4.2,2.5-7.1,4.2
			c5.9,3,11.2,5.4,16.3,8.4c22.3,12.8,35.1,32.4,40.3,57.3c5.6,27,3.1,53-8.9,77.9c-13.4,27.6-34.5,47.1-63.8,56.8
			c-18.3,6-37.4,8.3-56.6,8.4c-60.2,0.4-120.3,0.3-180.5,0.4c-2.2,0-4.3,0.2-6.5,0.3C0,260,0,130,0,0z M89.8,321.2
			c1,0.4,1.3,0.7,1.6,0.7c33.6-0.3,67.3-0.2,100.9-1.3c12.4-0.4,24-5.5,32.5-15.4c11.9-13.8,13.4-30.3,11.6-47.5
			c-1.6-15.2-9.5-26.4-23.4-32.3c-8-3.4-16.9-6-25.5-6.3c-30.8-1-61.6-0.7-92.4-1.2c-4.6-0.1-5.5,1.6-5.5,5.8c0.2,31,0.1,62,0.1,93
			C89.8,318.2,89.8,319.7,89.8,321.2z M90,67.9c-0.1,2.1-0.3,3.6-0.3,5.1c0,25.1,0.1,50.3-0.1,75.4c0,4.4,1.2,5.6,5.6,5.6
			c25.3-0.2,50.6,0.1,75.9-0.2c8.6-0.1,17.3-1.3,25.7-3c9.5-2,18.6-5.8,24.6-14c7.9-10.7,8.9-23.2,7-35.8c-2.2-14.6-10-25.1-25-28.1
			c-10.5-2.2-21.3-4.1-32-4.5c-19.3-0.8-38.6-0.3-57.9-0.3C105.9,67.9,98.3,67.9,90,67.9z"/>
		<path class="st0" d="M626,259c-1.5-0.1-3-0.3-4.5-0.3c-64.2,0-128.3,0-192.5,0c-1.8,0-3.6,0-6.4,0c0.5,4.8,0.7,9.3,1.4,13.6
			c4.2,25.9,17.6,44.5,43.3,52.1c19.4,5.7,38.9,5.5,57.3-4c8.1-4.1,14.8-10.3,19.1-18.5c2.2-4.2,5.1-6.1,10.2-6
			c20.7,0.4,41.3,0.1,62,0.1c1.8,0,3.5,0,5.7,0c-1.3,13.3-6.8,24-13.7,34c-18.9,27.5-44.5,45.3-77.2,52.5
			c-33.8,7.5-67.2,6.4-99.6-6.7c-40.8-16.5-68.3-44.7-77.1-89c-7-35.2-6.7-70.3,3.3-104.8c7.8-26.8,23.1-48.8,45.8-65.4
			c26.9-19.6,57.4-26.4,90-25.4c26.1,0.8,51.2,6.4,73.7,20.5c19.1,12,32.8,28.9,43.1,48.8c9.6,18.7,13.7,38.8,15.1,59.6
			c0.1,1.6,0.6,3.2,0.9,4.8C626,236.3,626,247.7,626,259z M549.8,210.4c-1.1-22.1-9.1-40.5-29.1-50.8c-22.7-11.7-46.4-12.4-68.5,1.3
			c-17.8,11-24.2,29.3-27.5,49.5C466.8,210.4,508.2,210.4,549.8,210.4z"/>
		<path class="st0" d="M565,16.8c0,12.8,0,25.2,0,38c-52,0-103.7,0-155.8,0c0-12.6,0-25.1,0-38C461.1,16.8,512.9,16.8,565,16.8z"/>
		<path class="st0" d="M89.8,321.2c0-1.5,0-3,0-4.5c0-31,0.1-62-0.1-93c0-4.2,0.8-5.8,5.5-5.8c30.8,0.5,61.6,0.2,92.4,1.2
			c8.6,0.3,17.5,2.9,25.5,6.3c13.9,5.9,21.8,17,23.4,32.3c1.8,17.2,0.3,33.6-11.6,47.5c-8.6,9.9-20.1,15-32.5,15.4
			c-33.6,1.1-67.2,1-100.9,1.3C91.1,321.9,90.8,321.7,89.8,321.2z"/>
		<path class="st0" d="M90,67.9c8.3,0,15.9,0,23.5,0c19.3,0,38.7-0.4,57.9,0.3c10.7,0.4,21.4,2.4,32,4.5c15,3.1,22.9,13.5,25,28.1
			c1.9,12.6,0.9,25-7,35.8c-6.1,8.2-15.1,12-24.6,14c-8.4,1.8-17.1,2.9-25.7,3c-25.3,0.4-50.6,0-75.9,0.2c-4.4,0-5.7-1.2-5.6-5.6
			c0.2-25.1,0.1-50.3,0.1-75.4C89.8,71.6,89.9,70.1,90,67.9z"/>
		<path class="st0" d="M549.8,210.4c-41.6,0-83,0-125.1,0c3.3-20.2,9.8-38.5,27.5-49.5c22.1-13.7,45.9-13,68.5-1.3
			C540.7,169.9,548.7,188.3,549.8,210.4z"/>
	</g>
</g>
<g>
</g>
<g>
</g>
<g>
</g>
<g>
</g>
<g>
</g>
<g>
</g>
</svg>
