<?xml version="1.0" encoding="utf-8"?>
<!-- Generator: Adobe Illustrator 18.1.1, SVG Export Plug-In . SVG Version: 6.00 Build 0)  -->
<svg version="1.1" id="Layer_1" xmlns="http://www.w3.org/2000/svg" xmlns:xlink="http://www.w3.org/1999/xlink" x="0px" y="0px"
	 width="500px" height="500px" viewBox="0 0 500 500" style="enable-background:new 0 0 500 500;" xml:space="preserve">
<style type="text/css">
	.st0{fill:#666666;}
</style>
<g>
	<g>
		<path class="st0" d="M228.7,0.6c14.9,0,29.9,0,44.8,0c3.9,0.9,7.8,2.2,11.8,2.7c26.3,3.1,51.1,11.3,75,22.5
			c17.6,8.3,33.8,18.9,48.7,31.3c16.2,13.5,30.8,28.5,43.3,45.7c11.7,16,21.4,33.2,29,51.4c10.3,24.7,16.5,50.4,18.3,77.2
			c0.1,1.6,1.1,3.1,1.6,4.6c0,9.3,0,18.7,0,28c-0.6,1.2-1.5,2.3-1.6,3.5c-1.3,10.1-1.7,20.4-3.7,30.4c-9,44.7-28.5,84.4-58.9,118.4
			c-25.8,28.9-56.9,50.6-92.9,65c-19.2,7.7-39.1,13.1-59.7,15.5c-4,0.5-7.8,1.8-11.8,2.7c-14.2,0-28.4,0-42.6,0
			c-1-0.6-1.9-1.5-2.9-1.6c-4.8-0.6-9.6-0.7-14.4-1.5c-32-5.5-62.1-16.1-90.1-32.9c-25-15-46.6-34-65-56.4
			c-15.4-18.8-27.7-39.6-36.9-62.2c-10-24.6-16.3-50.1-17.8-76.7c-0.1-1.4-1.1-2.7-1.6-4.1c0-9.7,0-19.4,0-29.1
			c0.6-1.2,1.5-2.3,1.6-3.5c1.3-9.9,1.9-20,3.9-29.8c8.7-42.1,26.4-79.9,54.5-112.8c21.6-25.2,46.8-45.8,76.3-60.8
			c25.2-12.8,51.8-21.5,80-24.8C221.3,2.8,225,1.5,228.7,0.6z M223.9,236.4c2.2-0.8,4.2-1.4,6.1-2.1c10.6-4,18.1-11.5,21-22.3
			c4.3-16.5,2.7-32.7-6.9-47.2c-11.3-17.1-28.9-23-48.2-23.4c-34.7-0.6-69.5-0.2-104.2-0.2c-1.8,0-3.6,0.2-5.4,0.3
			c0,69.6,0,138.7,0,208.2c4.8,0,9.1,0,13.4,0c35.6-0.4,71.3,0.4,106.8-1.5c22.3-1.2,40.2-12.8,48.9-34.4
			c7.8-19.5,7.2-39.3-2.2-58.3C247.4,243.8,237.6,237.3,223.9,236.4z M420.6,284.8c0.9-14.5,0.8-28-3.1-41.2
			c-6.8-22.7-20.3-39.7-44-45.5c-10.9-2.7-22.8-3.1-34.1-2.7c-22.6,0.7-41.4,9.8-54.6,28.7c-14.7,21.1-19.4,44.6-15,69.6
			c4.4,24.5,16.9,44,40.8,53.5c23.4,9.3,47.4,9.6,71.5,2c14.1-4.5,25.4-12.4,32.1-25.9c3.8-7.7,5.4-15.9,5.3-24.6
			c-12.5,0-24.4,0-36.2,0c-1.9,8.1-4.8,14.6-12.8,18.2c-9.1,4.1-18.5,4.5-28,3.6c-15.5-1.6-26-11.6-29-26.7
			c-1.5-7.5-0.3-8.9,7.3-8.9c30.8,0,61.7,0,92.5,0C415.6,284.8,417.8,284.8,420.6,284.8z M389.3,154.1c-28.9,0-57.3,0-85.5,0
			c0,8.6,0,16.7,0,24.8c28.8,0,57,0,85.5,0C389.3,170.5,389.3,162.6,389.3,154.1z"/>
		<path class="st0" d="M166.4,256.7c8.4,0,16.8-0.1,25.2,0c12.2,0.1,20.6,6.6,23,18.6c1.1,5.6,1.6,11.6,0.8,17.1
			c-2,13.1-10.2,20-23.9,20.2c-17.5,0.3-35.1,0-52.6,0.1c-3.6,0-5-1.3-5-4.9c0.1-15.5,0.1-31,0-46.4c0-3.8,1.6-4.8,5.1-4.8
			C148.2,256.8,157.3,256.7,166.4,256.7z"/>
		<path class="st0" d="M165.4,178.3c7.1,0,14.2,0.4,21.3-0.1c19.1-1.4,23.6,12.4,22,27.5c-0.1,0.9-0.5,1.8-0.6,2.7
			c-1.6,14.2-7.5,16.4-18.6,16.8c-16.8,0.6-33.6,0.1-50.4,0.2c-4,0-5.1-1.7-5.1-5.4c0.1-12.1,0.2-24.3,0-36.4
			c-0.1-4.3,1.7-5.5,5.7-5.4C148.2,178.4,156.8,178.3,165.4,178.3z"/>
	</g>
	<path class="st0" d="M313.4,256.7c1.8-18,16.3-31,33.6-31.4c12.1-0.3,22.2,2.9,28.5,13.6c2.3,3.9,3.6,8.5,4.7,12.9
		c0.3,1.3-1.7,4.7-2.7,4.7C356.2,256.7,334.8,256.7,313.4,256.7z"/>
</g>
</svg>
