<?xml version="1.0" encoding="utf-8"?>
<!-- Generator: Adobe Illustrator 18.1.1, SVG Export Plug-In . SVG Version: 6.00 Build 0)  -->
<svg version="1.1" id="Layer_1" xmlns="http://www.w3.org/2000/svg" xmlns:xlink="http://www.w3.org/1999/xlink" x="0px" y="0px"
	 viewBox="0 0 300 300" style="enable-background:new 0 0 300 300;" xml:space="preserve">
<style type="text/css">
	.st0{fill:#A7A9AC;}
	.st1{fill:#FFFFFF;}
</style>
<circle class="st0" cx="150" cy="150" r="107"/>
<polygon class="st1" points="140.8,102.6 144.5,88.4 155.7,88.4 160.2,102.6 169.2,107.1 181.9,97.8 191.6,103.4 186.4,119.8 
	188.6,125.1 206.6,125.1 211.9,137 198.4,145.3 198.4,155.7 211.9,161 207.3,174.4 192.4,174.4 186.4,181.9 190.1,194.6 
	181.9,202.8 168.5,193.9 159.5,196.1 155.7,211.6 144.5,211.6 140.8,196.9 129.6,193.9 116.8,202.8 107.9,194.6 114.6,183.4 
	107.9,174.4 93.7,174.4 88.1,161 103.4,155.7 101.1,145.3 88.1,140.5 88.1,127.3 102.6,128 113.1,117.6 109.4,102.6 117.6,98.1 
	128.8,108.6 "/>
<circle class="st0" cx="150" cy="150" r="25.9"/>
<g>
</g>
<g>
</g>
<g>
</g>
<g>
</g>
<g>
</g>
<g>
</g>
</svg>
