<?xml version="1.0" encoding="utf-8"?>
<!-- Generator: Adobe Illustrator 18.1.1, SVG Export Plug-In . SVG Version: 6.00 Build 0)  -->
<svg version="1.1" id="Layer_1" xmlns="http://www.w3.org/2000/svg" xmlns:xlink="http://www.w3.org/1999/xlink" x="0px" y="0px"
	 width="500px" height="500px" viewBox="0 0 500 500" style="enable-background:new 0 0 500 500;" xml:space="preserve">
<style type="text/css">
	.st0{fill:#FFFFFF;}
	.st1{fill:#666666;}
</style>
<path class="st0" d="M98.7,1.1c0.2,2,0.5,4.1,0.5,6.1c0,36.8,0,73.6,0,110.4c0,7.7-1.4,9-9.2,9.1c-1.5,0-3,0-4.5,0
	c-7-0.3-8.4-1.8-8.4-8.9c0-35.5,0-71,0-106.5c0-2.2-0.2-4.4-0.3-6.6C66,5,64.1,6.9,64.1,16.6c0,33.4,0,66.9,0,100.3
	c0,8.7-1,9.7-9.6,9.8c-1.9,0-3.7,0.1-5.6-0.1c-4-0.3-6.6-1.6-4.9-6.4c0.4-1.2,0.3-2.6,0.3-3.9c0-30.5,0-60.9,0-91.4
	c0-1.5-0.2-2.9-0.4-5.5c-2.2,1.4-4,2.3-5.4,3.5C15.9,42.6,2.8,66.8,2.6,97.1c-0.1,20.2,0.1,40.4-0.1,60.5c-0.1,5.2,1.5,6.7,6.7,6.7
	c48.2-0.2,96.4,0,144.6-0.3c2.9,0,6.5-1.6,8.7-3.6c22-19.8,47.4-31.7,77-34.4c38.1-3.4,70.7,8.8,98.9,34.1c2.5,2.2,6.5,3.9,9.8,3.9
	c48.2,0.2,96.4,0.1,144.6,0.3c5.4,0,7.1-1.5,7-7c-0.3-19.6,0.2-39.2-0.2-58.8c-0.7-40.4-19.8-69.5-55.5-87.7
	C436.6,7,428,5.4,419.9,2.7c-1-0.3-1.9-1-2.8-1.5c28,0,56.1,0,84.1,0c0,166.7,0,333.3,0,500c-26.2,0-52.3,0-78.5,0
	c6.9-2.7,13.9-5.1,20.6-8.2c32-15.2,49.9-41,56-75.4c0.7-3.8,0.4-7.8,0.4-11.7c0-72.9,0-145.7,0.1-218.6c0-5.6-1.4-7.4-7.2-7.3
	c-43.5,0.2-87.1,0.1-130.6,0.1c-1.6,0-3.3,0.2-5.8,0.3c23.5,35.4,28.2,73.2,16.8,112.8c-7.6,26.4-23.4,47.8-45.5,64.2
	c-46.3,34.6-109.6,32.1-151.5,1.3c-27.9-20.6-45.6-47.8-51.1-82.3c-5.5-34.1,0.8-66,20.6-95.5c-2.3-0.3-3.7-0.6-5.1-0.6
	c-43.9,0-87.8,0-131.7-0.1c-4.2,0-6,1-6,5.6c0.1,74.7-0.1,149.5,0.2,224.2c0.1,23.6,9.9,43.8,25.6,61.1
	c13.1,14.5,29.5,23.8,48.4,28.8c1,0.3,1.9,1.1,2.8,1.6c-26.1,0-52.3,0-78.4,0c0-166.7,0-333.3,0-500C33.7,1.1,66.2,1.1,98.7,1.1z
	 M250.7,156.1c-52.8-1.6-97.8,43.7-97.8,98c-0.1,45.2,34.5,101.3,105.9,97.9c39.5-1.8,92.4-34.5,89.7-105.1
	C346.8,200.1,307.2,155.3,250.7,156.1z"/>
<path class="st0" d="M132.3,1.1c0.2,2,0.5,4.1,0.5,6.1c0,37,0,74,0,111c0,7.1-1.2,8.4-8.4,8.5c-1.5,0-3,0-4.5,0
	c-7.2-0.2-8.4-1.4-8.4-8.5c0-37,0-74,0-111c0-2,0.3-4.1,0.5-6.1C118.8,1.1,125.6,1.1,132.3,1.1z"/>
<path class="st0" d="M455.7,85.2c0,9.1,0.1,18.3,0,27.4c-0.2,9.4-7.4,15-16.8,14.8c-18.1-0.3-36.1,0.1-54.2,0.5
	c-5.7,0.1-13.8-5.5-13.9-12.1c-0.4-20.7-0.4-41.4,0-62.1c0.1-7,7.9-12.5,17.3-12.6c16.6-0.3,33.2-0.3,49.8,0
	c12.2,0.2,18.6,8.5,18,18.8C455.3,68.4,455.7,76.8,455.7,85.2C455.7,85.2,455.7,85.2,455.7,85.2z"/>
<g>
	<path class="st1" d="M422.6,501.1c-114.3,0-228.7,0-343,0c-0.9-0.5-1.8-1.3-2.8-1.6c-18.8-5-35.2-14.3-48.4-28.8
		c-15.7-17.3-25.5-37.5-25.6-61.1c-0.3-74.7-0.1-149.5-0.2-224.2c0-4.6,1.8-5.6,6-5.6c43.9,0.1,87.8,0.1,131.7,0.1
		c1.4,0,2.8,0.3,5.1,0.6c-19.8,29.6-26.1,61.4-20.6,95.5c5.5,34.5,23.2,61.8,51.1,82.3c41.8,30.8,105.1,33.3,151.5-1.3
		c22-16.4,37.8-37.8,45.5-64.2c11.4-39.6,6.7-77.4-16.8-112.8c2.6-0.1,4.2-0.3,5.8-0.3c43.5,0,87.1,0.1,130.6-0.1
		c5.8,0,7.2,1.8,7.2,7.3c-0.2,72.9-0.1,145.7-0.1,218.6c0,3.9,0.3,7.9-0.4,11.7c-6,34.5-24,60.2-56,75.4
		C436.6,496.1,429.5,498.4,422.6,501.1z"/>
	<path class="st1" d="M98.7,1.1c4.5,0,9,0,13.5,0c-0.2,2-0.5,4.1-0.5,6.1c0,37,0,74,0,111c0,7.1,1.2,8.4,8.4,8.5c1.5,0,3,0,4.5,0
		c7.2-0.2,8.4-1.4,8.4-8.5c0-37,0-74,0-111c0-2-0.3-4.1-0.5-6.1c94.9,0,189.8,0,284.8,0c0.9,0.5,1.8,1.2,2.8,1.5
		c8.1,2.7,16.7,4.4,24.2,8.2c35.7,18.2,54.8,47.3,55.5,87.7c0.3,19.6-0.1,39.2,0.2,58.8c0.1,5.4-1.6,7-7,7
		c-48.2-0.2-96.4,0-144.6-0.3c-3.3,0-7.3-1.7-9.8-3.9c-28.2-25.3-60.9-37.5-98.9-34.1c-29.6,2.6-55,14.6-77,34.4
		c-2.2,2-5.8,3.6-8.7,3.6c-48.2,0.2-96.4,0.1-144.6,0.3c-5.2,0-6.8-1.5-6.7-6.7c0.3-20.2,0-40.4,0.1-60.5
		C2.8,66.8,15.9,42.6,38.5,23c1.4-1.2,3.2-2.1,5.4-3.5c0.2,2.6,0.4,4,0.4,5.5c0,30.4,0,60.9,0,91.4c0,1.3,0.1,2.7-0.3,3.9
		c-1.7,4.8,0.9,6.1,4.9,6.4c1.9,0.1,3.7,0.1,5.6,0.1c8.6-0.1,9.6-1.1,9.6-9.8c0-33.4,0-66.9,0-100.3C64.1,6.9,66,5,76.7,4.8
		C76.8,7,77,9.2,77,11.4c0,35.5,0,71,0,106.5c0,7.1,1.4,8.6,8.4,8.9c1.5,0.1,3,0,4.5,0c7.8-0.1,9.2-1.4,9.2-9.1
		c0-36.8,0-73.6,0-110.4C99.1,5.2,98.8,3.2,98.7,1.1z M455.7,85.2C455.7,85.2,455.7,85.2,455.7,85.2c0-8.4-0.3-16.8,0.1-25.2
		c0.6-10.3-5.7-18.6-18-18.8c-16.6-0.3-33.2-0.3-49.8,0c-9.3,0.2-17.1,5.6-17.3,12.6c-0.4,20.7-0.4,41.4,0,62.1
		c0.1,6.5,8.2,12.2,13.9,12.1c18.1-0.4,36.1-0.8,54.2-0.5c9.3,0.2,16.6-5.4,16.8-14.8C455.8,103.5,455.7,94.3,455.7,85.2z"/>
	<path class="st1" d="M250.7,156.1c56.5-0.7,96.1,44.1,97.8,90.8c2.7,70.7-50.3,103.3-89.7,105.1c-71.4,3.3-106-52.8-105.9-97.9
		C152.9,199.8,197.9,154.5,250.7,156.1z M251.3,180.4c-35.3-0.1-76,26.1-72.9,80.3c2,35.4,31.4,68.9,78,66.5
		c30.5-1.5,70.1-24.7,67.4-80C322.2,213,294,181.2,251.3,180.4z"/>
</g>
<path class="st0" d="M251.3,180.4c42.7,0.8,70.8,32.6,72.5,66.9c2.7,55.3-37,78.4-67.4,80c-46.6,2.4-76-31.2-78-66.5
	C175.3,206.5,216,180.4,251.3,180.4z"/>
<g>
</g>
<g>
</g>
<g>
</g>
<g>
</g>
<g>
</g>
<g>
</g>
<g>
</g>
<g>
</g>
<g>
</g>
<g>
</g>
<g>
</g>
<g>
</g>
<g>
</g>
<g>
</g>
<g>
</g>
</svg>
