<?xml version="1.0" encoding="utf-8"?>
<!-- Generator: Adobe Illustrator 18.1.1, SVG Export Plug-In . SVG Version: 6.00 Build 0)  -->
<svg version="1.1" id="Layer_1" xmlns="http://www.w3.org/2000/svg" xmlns:xlink="http://www.w3.org/1999/xlink" x="0px" y="0px"
	 width="123.9px" height="123.9px" viewBox="0 0 123.9 123.9" style="enable-background:new 0 0 123.9 123.9;" xml:space="preserve"
	>
<style type="text/css">
	.st0{fill:#808285;}
	.st1{fill:none;stroke:#808285;stroke-width:3.1196;stroke-miterlimit:10;}
</style>
<path class="st0" d="M70.7,58.5c0,0-19.3,5.6-19.3,22.5c0,9.4,4.1,12.2,8.7,15.1c4.3,2.7,11.6,3.6,23.4,2.9c0,0,29.1-1.5,26.1-26.9
	l-0.8,5.3c-5.7,21.9-32.1,19-32.1,19c-22.3-1.8-21.1-15-21.1-15c0.7-14.8,17.2-19.4,17.2-19.4c2.7-1,18.2-6.7,19.7-7.2
	c0,0,18.4-6.1,12.2-19.3c0,0-5.2-10.6-21.8-9.5c0,0-22.5,1.7-20.3,20.8l0.6-4c5-15.5,23.4-13.7,23.4-13.7c14.8,2.4,15,11.2,15,11.2
	c-0.2,9.8-13.4,13.1-13.4,13.1C84.1,54.5,81.4,54.7,70.7,58.5z"/>
<path class="st0" d="M51.4,59.5c0,0,19.3,5.6,19.3,22.5c0,9.4-4.1,12.2-8.7,15.1c-4.3,2.7-11.6,3.6-23.4,2.9c0,0-29.1-1.5-26.1-26.9
	l0.8,5.3c5.7,21.9,32.1,19,32.1,19c22.3-1.8,21.1-15,21.1-15C66,67.5,49.5,62.9,49.5,62.9c-2.7-1-18.2-6.7-19.7-7.2
	c0,0-18.4-6.1-12.2-19.3c0,0,5.2-10.6,21.8-9.5c0,0,22.5,1.7,20.3,20.8l-0.6-4c-5-15.5-23.4-13.7-23.4-13.7
	c-14.8,2.4-15,11.2-15,11.2c0.2,9.8,13.4,13.1,13.4,13.1C38.1,55.5,40.8,55.7,51.4,59.5z"/>
<circle class="st1" cx="61.9" cy="61.9" r="60.4"/>
<g>
</g>
<g>
</g>
<g>
</g>
<g>
</g>
<g>
</g>
<g>
</g>
</svg>
