<?xml version="1.0" encoding="utf-8"?>
<!-- Generator: Adobe Illustrator 18.1.1, SVG Export Plug-In . SVG Version: 6.00 Build 0)  -->
<svg version="1.1" id="Layer_1" xmlns="http://www.w3.org/2000/svg" xmlns:xlink="http://www.w3.org/1999/xlink" x="0px" y="0px"
	 width="500px" height="500px" viewBox="0 0 500 500" style="enable-background:new 0 0 500 500;" xml:space="preserve">
<style type="text/css">
	.st0{fill:#FFFFFF;}
	.st1{fill:#666666;}
</style>
<path class="st0" d="M98.7,1.1c0.2,2,0.5,4.1,0.5,6.1c0,36.8,0,73.6,0,110.4c0,7.7-1.4,9-9.2,9.1c-1.5,0-3,0-4.5,0
	c-7-0.3-8.4-1.8-8.4-8.9c0-35.5,0-71,0-106.5c0-2.2-0.2-4.4-0.3-6.6C66,5,64.1,6.9,64.1,16.6c0,33.4,0,66.9,0,100.3
	c0,8.7-1,9.7-9.6,9.8c-1.9,0-3.7,0.1-5.6-0.1c-4-0.3-6.6-1.6-4.9-6.4c0.4-1.2,0.3-2.6,0.3-3.9c0-30.5,0-60.9,0-91.4
	c0-1.5-0.2-2.9-0.4-5.5c-2.2,1.4-4,2.3-5.4,3.5C15.9,42.6,2.8,66.8,2.6,97.1c-0.1,20.2,0.1,40.4-0.1,60.5c-0.1,5.2,1.5,6.7,6.7,6.7
	c48.2-0.2,96.4,0,144.6-0.3c2.9,0,6.5-1.6,8.7-3.6c22-19.8,47.4-31.7,77-34.4c38.1-3.4,70.7,8.8,98.9,34.1c2.5,2.2,6.5,3.9,9.8,3.9
	c48.2,0.2,96.4,0.1,144.6,0.3c5.4,0,7.1-1.5,7-7c-0.3-19.6,0.2-39.2-0.2-58.8c-0.7-40.4-19.8-69.5-55.5-87.7
	C436.6,7,428,5.4,419.9,2.7c-1-0.3-1.9-1-2.8-1.5c28,0,56.1,0,84.1,0c0,166.7,0,333.3,0,500c-26.2,0-52.3,0-78.5,0
	c6.9-2.7,13.9-5.1,20.6-8.2c32-15.2,49.9-41,56-75.4c0.7-3.8,0.4-7.8,0.4-11.7c0-72.9,0-145.7,0.1-218.6c0-5.6-1.4-7.4-7.2-7.3
	c-43.5,0.2-87.1,0.1-130.6,0.1c-1.6,0-3.3,0.2-5.8,0.3c23.5,35.4,28.2,73.2,16.8,112.8c-7.6,26.4-23.4,47.8-45.5,64.2
	c-46.3,34.6-109.6,32.1-151.5,1.3c-27.9-20.6-45.6-47.8-51.1-82.3c-5.5-34.1,0.8-66,20.6-95.5c-2.3-0.3-3.7-0.6-5.1-0.6
	c-43.9,0-87.8,0-131.7-0.1c-4.2,0-6,1-6,5.6c0.1,74.7-0.1,149.5,0.2,224.2c0.1,23.6,9.9,43.8,25.6,61.1
	c13.1,14.5,29.5,23.8,48.4,28.8c1,0.3,1.9,1.1,2.8,1.6c-26.1,0-52.3,0-78.4,0c0-166.7,0-333.3,0-500C33.7,1.1,66.2,1.1,98.7,1.1z
	 M250.7,156.1c-52.8-1.6-97.8,43.7-97.8,98c-0.1,45.2,34.5,101.3,105.9,97.9c39.5-1.8,92.4-34.5,89.7-105.1
	C346.8,200.1,307.2,155.3,250.7,156.1z"/>
<path class="st0" d="M132.3,1.1c0.2,2,0.5,4.1,0.5,6.1c0,37,0,74,0,111c0,7.1-1.2,8.4-8.4,8.5c-1.5,0-3,0-4.5,0
	c-7.2-0.2-8.4-1.4-8.4-8.5c0-37,0-74,0-111c0-2,0.3-4.1,0.5-6.1C118.8,1.1,125.6,1.1,132.3,1.1z"/>
<path class="st0" d="M455.7,85.2c0,9.1,0.1,18.3,0,27.4c-0.2,9.4-7.4,15-16.8,14.8c-18.1-0.3-36.1,0.1-54.2,0.5
	c-5.7,0.1-13.8-5.5-13.9-12.1c-0.4-20.7-0.4-41.4,0-62.1c0.1-7,7.9-12.5,17.3-12.6c16.6-0.3,33.2-0.3,49.8,0
	c12.2,0.2,18.6,8.5,18,18.8C455.3,68.4,455.7,76.8,455.7,85.2C455.7,85.2,455.7,85.2,455.7,85.2z"/>
<path class="st0" d="M251.3,180.4c42.7,0.8,70.8,32.6,72.5,66.9c2.7,55.3-37,78.4-67.4,80c-46.6,2.4-76-31.2-78-66.5
	C175.3,206.5,216,180.4,251.3,180.4z"/>
<path class="st1" d="M1.1,267.9c0-12.4,0-24.8,0-37.1c0.6-1.4,1.4-2.7,1.6-4.2c1-7.4,1.3-14.9,2.7-22.2c8.8-46,28.8-86.6,59.9-121.6
	c22-24.8,48.5-43.9,78.1-58.4c21.9-10.7,45.2-17.5,69.2-21.7c0.8-0.1,1.6-1.1,2.3-1.6c24.8,0,49.5,0,74.3,0c4.4,1.3,8.8,3,13.3,3.9
	c27.3,5.3,52.7,15.3,76.6,29.3c24.2,14.2,45.6,31.8,63.8,53.3c14.3,17,26.6,35.2,36,55.2c10,21.4,17,43.8,20.6,67.2
	c3.9,25.4,4.3,50.7,0.6,75.9c-4.7,31.8-14.5,62-31.2,89.6c-49.5,81.7-122.5,123.8-217.8,125.8c-38.8,0.8-76.3-8.4-110.9-26.7
	C62,433.3,16.5,368.8,3.8,281.1C3.2,276.7,2,272.3,1.1,267.9z M347.2,131.1c-33.4-0.5-64.8,23.8-73.9,56.5c-0.7,2.5-0.4,5.4-0.6,8.1
	c2.6-0.5,5.3-1,7.8-1.7c2.3-0.6,4.6-1.7,6.9-2.2c9-2.2,17,2.5,20.6,11c3.2,7.7,2.5,15.5-1.2,22.3c-8,14.8-16.6,29.2-25.5,43.4
	c-2.7,4.3-7,7.7-10.7,11.3c-3.5,3.4-6.8,2.1-8.7-1.6c-3-6-6.3-12-7.9-18.5c-5.8-23.8-10.7-47.7-16.2-71.5c-2.8-12-5.4-24.1-9.4-35.7
	c-4.8-14-17.4-22.1-28.9-20c-12.4,2.3-23.3,7.7-33.5,15C150.4,159,136,172,122.8,186.4c-11.6,12.5-10.2,8.8-1.4,21.6
	c0.3,0.5,0.7,0.9,1.1,1.3c2.6,3,5,3.5,8.7,1.1c5.1-3.3,10.8-5.9,16.4-8.4c5-2.2,8.4,0.1,10.2,4.7c2.2,5.4,4.4,10.7,6.1,16.3
	c11.3,35.6,22.6,71.3,33.8,107c3.8,12.2,10,22.8,19.4,31.7c13.1,12.3,31.3,14.5,46.3,4.4c26.3-17.7,48.3-40,68.7-64.1
	c20-23.5,36.9-49,47.7-78.1c7.1-19.1,13.4-38.6,10-59.5c-1.6-9.9-5.4-18.5-13.7-24.8C367.6,132.9,357.8,130.8,347.2,131.1z"/>
<path class="st0" d="M1.1,267.9c0.9,4.4,2.1,8.8,2.7,13.2C16.5,368.8,62,433.3,140.2,474.6c34.6,18.3,72,27.5,110.9,26.7
	c95.3-2,168.3-44,217.8-125.8c16.7-27.5,26.6-57.8,31.2-89.6c3.7-25.3,3.4-50.6-0.6-75.9c-3.6-23.5-10.6-45.9-20.6-67.2
	c-9.4-20-21.7-38.3-36-55.2c-18.2-21.5-39.6-39.1-63.8-53.3c-23.8-14-49.3-24-76.6-29.3c-4.5-0.9-8.9-2.6-13.3-3.9
	c71.7,0,143.3,0,215,0c0,167.3,0,334.7,0,502c-167.7,0-335.4,0-503.2,0C1.1,424.8,1.1,346.3,1.1,267.9z"/>
<path class="st0" d="M215,1.1c-0.8,0.6-1.5,1.5-2.3,1.6c-24,4.1-47.3,11-69.2,21.7C113.8,38.9,87.3,58,65.3,82.8
	c-31.1,35-51,75.6-59.9,121.6c-1.4,7.3-1.7,14.8-2.7,22.2c-0.2,1.4-1.1,2.8-1.6,4.2c0-76.4,0-152.9,0-229.6
	C72.4,1.1,143.7,1.1,215,1.1z"/>
<path class="st0" d="M347.2,131.1c10.6-0.3,20.4,1.8,29,8.3c8.3,6.3,12.1,14.9,13.7,24.8c3.3,21-2.9,40.4-10,59.5
	c-10.8,29.1-27.7,54.6-47.7,78.1c-20.4,24-42.4,46.4-68.7,64.1c-15,10.1-33.2,8-46.3-4.4c-9.4-8.9-15.6-19.5-19.4-31.7
	c-11.3-35.7-22.5-71.3-33.8-107c-1.8-5.5-3.9-10.9-6.1-16.3c-1.9-4.6-5.3-7-10.2-4.7c-5.6,2.5-11.3,5.1-16.4,8.4
	c-3.7,2.4-6.1,1.9-8.7-1.1c-0.4-0.4-0.7-0.9-1.1-1.3c-8.8-12.8-10.1-9,1.4-21.6c13.2-14.3,27.6-27.3,43.4-38.7
	c10.1-7.3,21.1-12.7,33.5-15c11.5-2.1,24.2,5.9,28.9,20c3.9,11.6,6.6,23.7,9.4,35.7c5.5,23.8,10.5,47.8,16.2,71.5
	c1.6,6.4,4.9,12.5,7.9,18.5c1.9,3.8,5.2,5,8.7,1.6c3.7-3.6,8-7,10.7-11.3c8.9-14.2,17.6-28.6,25.5-43.4c3.7-6.8,4.4-14.5,1.2-22.3
	c-3.6-8.6-11.7-13.2-20.6-11c-2.4,0.6-4.6,1.6-6.9,2.2c-2.6,0.7-5.2,1.1-7.8,1.7c0.2-2.7-0.1-5.5,0.6-8.1
	C282.5,154.9,313.9,130.6,347.2,131.1z"/>
<g>
</g>
<g>
</g>
<g>
</g>
<g>
</g>
<g>
</g>
<g>
</g>
<g>
</g>
<g>
</g>
<g>
</g>
<g>
</g>
<g>
</g>
<g>
</g>
<g>
</g>
<g>
</g>
<g>
</g>
</svg>
