<?xml version="1.0" encoding="utf-8"?>
<!-- Generator: Adobe Illustrator 18.1.1, SVG Export Plug-In . SVG Version: 6.00 Build 0)  -->
<svg version="1.1" id="Layer_1" xmlns="http://www.w3.org/2000/svg" xmlns:xlink="http://www.w3.org/1999/xlink" x="0px" y="0px"
	 width="500px" height="500px" viewBox="0 0 500 500" style="enable-background:new 0 0 500 500;" xml:space="preserve">
<style type="text/css">
	.st0{fill:#FFFFFF;}
	.st1{fill:#666666;}
</style>
<path class="st0" d="M455.7,85.2c0,9.1,0.1,18.3,0,27.4c-0.2,9.4-7.4,15-16.8,14.8c-18.1-0.3-36.1,0.1-54.2,0.5
	c-5.7,0.1-13.8-5.5-13.9-12.1c-0.4-20.7-0.4-41.4,0-62.1c0.1-7,7.9-12.5,17.3-12.6c16.6-0.3,33.2-0.3,49.8,0
	c12.2,0.2,18.6,8.5,18,18.8C455.3,68.4,455.7,76.8,455.7,85.2C455.7,85.2,455.7,85.2,455.7,85.2z"/>
<path class="st0" d="M251.3,180.4c42.7,0.8,70.8,32.6,72.5,66.9c2.7,55.3-37,78.4-67.4,80c-46.6,2.4-76-31.2-78-66.5
	C175.3,206.5,216,180.4,251.3,180.4z"/>
<path class="st1" d="M-1.6,266.7c0-12.4,0-24.8,0-37.1c0.6-1.4,1.4-2.7,1.6-4.2c1-7.4,1.3-14.9,2.7-22.2
	c8.8-46,28.8-86.6,59.9-121.6c22-24.8,48.5-43.9,78.1-58.4c21.9-10.7,45.2-17.5,69.2-21.7c0.8-0.1,1.6-1.1,2.3-1.6
	c24.8,0,49.5,0,74.3,0c4.4,1.3,8.8,3,13.3,3.9C327.1,9,352.6,19,376.4,33c24.2,14.2,45.6,31.8,63.8,53.3c14.3,17,26.6,35.2,36,55.2
	c10,21.4,17,43.8,20.6,67.2c3.9,25.4,4.3,50.7,0.6,75.9c-4.7,31.8-14.5,62-31.2,89.6C416.7,456,343.6,498.1,248.4,500.1
	c-38.8,0.8-76.3-8.4-110.9-26.7C59.3,432.1,13.8,367.5,1.1,279.9C0.5,275.4-0.7,271.1-1.6,266.7z M344.5,129.9
	c-33.4-0.5-64.8,23.8-73.9,56.5c-0.7,2.5-0.4,5.4-0.6,8.1c2.6-0.5,5.3-1,7.8-1.7c2.3-0.6,4.6-1.7,6.9-2.2c9-2.2,17,2.5,20.6,11
	c3.2,7.7,2.5,15.5-1.2,22.3c-8,14.8-16.6,29.2-25.5,43.4c-2.7,4.3-7,7.7-10.7,11.3c-3.5,3.4-6.8,2.1-8.7-1.6c-3-6-6.3-12-7.9-18.5
	c-5.8-23.8-10.7-47.7-16.2-71.5c-2.8-12-5.4-24.1-9.4-35.7c-4.8-14-17.4-22.1-28.9-20c-12.4,2.3-23.3,7.7-33.5,15
	c-15.8,11.4-30.1,24.4-43.4,38.7c-11.6,12.5-10.2,8.8-1.4,21.6c0.3,0.5,0.7,0.9,1.1,1.3c2.6,3,5,3.5,8.7,1.1
	c5.1-3.3,10.8-5.9,16.4-8.4c5-2.2,8.4,0.1,10.2,4.7c2.2,5.4,4.4,10.7,6.1,16.3c11.3,35.6,22.6,71.3,33.8,107
	c3.8,12.2,10,22.8,19.4,31.7c13.1,12.3,31.3,14.5,46.3,4.4c26.3-17.7,48.3-40,68.7-64.1c20-23.5,36.9-49,47.7-78.1
	c7.1-19.1,13.4-38.6,10-59.5c-1.6-9.9-5.4-18.5-13.7-24.8C364.9,131.7,355.1,129.6,344.5,129.9z"/>
<g>
</g>
<g>
</g>
<g>
</g>
<g>
</g>
<g>
</g>
<g>
</g>
<g>
</g>
<g>
</g>
<g>
</g>
<g>
</g>
<g>
</g>
<g>
</g>
<g>
</g>
<g>
</g>
<g>
</g>
</svg>
